<svg aria-roledescription="flowchart-v2" role="graphics-document document" viewBox="0 0 1036 1264" style="max-width: 1036px;" class="flowchart" xmlns:xlink="http://www.w3.org/1999/xlink" xmlns="http://www.w3.org/2000/svg" width="100%" id="mermaid-diagram-mermaid-0qb0ada"><style>#mermaid-diagram-mermaid-0qb0ada{font-family:"trebuchet ms",verdana,arial,sans-serif;font-size:16px;fill:#000000;}@keyframes edge-animation-frame{from{stroke-dashoffset:0;}}@keyframes dash{to{stroke-dashoffset:0;}}#mermaid-diagram-mermaid-0qb0ada .edge-animation-slow{stroke-dasharray:9,5!important;stroke-dashoffset:900;animation:dash 50s linear infinite;stroke-linecap:round;}#mermaid-diagram-mermaid-0qb0ada .edge-animation-fast{stroke-dasharray:9,5!important;stroke-dashoffset:900;animation:dash 20s linear infinite;stroke-linecap:round;}#mermaid-diagram-mermaid-0qb0ada .error-icon{fill:#552222;}#mermaid-diagram-mermaid-0qb0ada .error-text{fill:#552222;stroke:#552222;}#mermaid-diagram-mermaid-0qb0ada .edge-thickness-normal{stroke-width:1px;}#mermaid-diagram-mermaid-0qb0ada .edge-thickness-thick{stroke-width:3.5px;}#mermaid-diagram-mermaid-0qb0ada .edge-pattern-solid{stroke-dasharray:0;}#mermaid-diagram-mermaid-0qb0ada .edge-thickness-invisible{stroke-width:0;fill:none;}#mermaid-diagram-mermaid-0qb0ada .edge-pattern-dashed{stroke-dasharray:3;}#mermaid-diagram-mermaid-0qb0ada .edge-pattern-dotted{stroke-dasharray:2;}#mermaid-diagram-mermaid-0qb0ada .marker{fill:#666;stroke:#666;}#mermaid-diagram-mermaid-0qb0ada .marker.cross{stroke:#666;}#mermaid-diagram-mermaid-0qb0ada svg{font-family:"trebuchet ms",verdana,arial,sans-serif;font-size:16px;}#mermaid-diagram-mermaid-0qb0ada p{margin:0;}#mermaid-diagram-mermaid-0qb0ada .label{font-family:"trebuchet ms",verdana,arial,sans-serif;color:#000000;}#mermaid-diagram-mermaid-0qb0ada .cluster-label text{fill:#333;}#mermaid-diagram-mermaid-0qb0ada .cluster-label span{color:#333;}#mermaid-diagram-mermaid-0qb0ada .cluster-label span p{background-color:transparent;}#mermaid-diagram-mermaid-0qb0ada .label text,#mermaid-diagram-mermaid-0qb0ada span{fill:#000000;color:#000000;}#mermaid-diagram-mermaid-0qb0ada .node rect,#mermaid-diagram-mermaid-0qb0ada .node circle,#mermaid-diagram-mermaid-0qb0ada .node ellipse,#mermaid-diagram-mermaid-0qb0ada .node polygon,#mermaid-diagram-mermaid-0qb0ada .node path{fill:#eee;stroke:#999;stroke-width:1px;}#mermaid-diagram-mermaid-0qb0ada .rough-node .label text,#mermaid-diagram-mermaid-0qb0ada .node .label text,#mermaid-diagram-mermaid-0qb0ada .image-shape .label,#mermaid-diagram-mermaid-0qb0ada .icon-shape .label{text-anchor:middle;}#mermaid-diagram-mermaid-0qb0ada .node .katex path{fill:#000;stroke:#000;stroke-width:1px;}#mermaid-diagram-mermaid-0qb0ada .rough-node .label,#mermaid-diagram-mermaid-0qb0ada .node .label,#mermaid-diagram-mermaid-0qb0ada .image-shape .label,#mermaid-diagram-mermaid-0qb0ada .icon-shape .label{text-align:center;}#mermaid-diagram-mermaid-0qb0ada .node.clickable{cursor:pointer;}#mermaid-diagram-mermaid-0qb0ada .root .anchor path{fill:#666!important;stroke-width:0;stroke:#666;}#mermaid-diagram-mermaid-0qb0ada .arrowheadPath{fill:#333333;}#mermaid-diagram-mermaid-0qb0ada .edgePath .path{stroke:#666;stroke-width:2.0px;}#mermaid-diagram-mermaid-0qb0ada .flowchart-link{stroke:#666;fill:none;}#mermaid-diagram-mermaid-0qb0ada .edgeLabel{background-color:white;text-align:center;}#mermaid-diagram-mermaid-0qb0ada .edgeLabel p{background-color:white;}#mermaid-diagram-mermaid-0qb0ada .edgeLabel rect{opacity:0.5;background-color:white;fill:white;}#mermaid-diagram-mermaid-0qb0ada .labelBkg{background-color:rgba(255, 255, 255, 0.5);}#mermaid-diagram-mermaid-0qb0ada .cluster rect{fill:hsl(0, 0%, 98.9215686275%);stroke:#707070;stroke-width:1px;}#mermaid-diagram-mermaid-0qb0ada .cluster text{fill:#333;}#mermaid-diagram-mermaid-0qb0ada .cluster span{color:#333;}#mermaid-diagram-mermaid-0qb0ada div.mermaidTooltip{position:absolute;text-align:center;max-width:200px;padding:2px;font-family:"trebuchet ms",verdana,arial,sans-serif;font-size:12px;background:hsl(-160, 0%, 93.3333333333%);border:1px solid #707070;border-radius:2px;pointer-events:none;z-index:100;}#mermaid-diagram-mermaid-0qb0ada .flowchartTitleText{text-anchor:middle;font-size:18px;fill:#000000;}#mermaid-diagram-mermaid-0qb0ada rect.text{fill:none;stroke-width:0;}#mermaid-diagram-mermaid-0qb0ada .icon-shape,#mermaid-diagram-mermaid-0qb0ada .image-shape{background-color:white;text-align:center;}#mermaid-diagram-mermaid-0qb0ada .icon-shape p,#mermaid-diagram-mermaid-0qb0ada .image-shape p{background-color:white;padding:2px;}#mermaid-diagram-mermaid-0qb0ada .icon-shape rect,#mermaid-diagram-mermaid-0qb0ada .image-shape rect{opacity:0.5;background-color:white;fill:white;}#mermaid-diagram-mermaid-0qb0ada :root{--mermaid-font-family:"trebuchet ms",verdana,arial,sans-serif;}</style><g><marker orient="auto" markerHeight="8" markerWidth="8" markerUnits="userSpaceOnUse" refY="5" refX="5" viewBox="0 0 10 10" class="marker flowchart-v2" id="mermaid-diagram-mermaid-0qb0ada_flowchart-v2-pointEnd"><path style="stroke-width: 1; stroke-dasharray: 1, 0;" class="arrowMarkerPath" d="M 0 0 L 10 5 L 0 10 z"></path></marker><marker orient="auto" markerHeight="8" markerWidth="8" markerUnits="userSpaceOnUse" refY="5" refX="4.5" viewBox="0 0 10 10" class="marker flowchart-v2" id="mermaid-diagram-mermaid-0qb0ada_flowchart-v2-pointStart"><path style="stroke-width: 1; stroke-dasharray: 1, 0;" class="arrowMarkerPath" d="M 0 5 L 10 10 L 10 0 z"></path></marker><marker orient="auto" markerHeight="11" markerWidth="11" markerUnits="userSpaceOnUse" refY="5" refX="11" viewBox="0 0 10 10" class="marker flowchart-v2" id="mermaid-diagram-mermaid-0qb0ada_flowchart-v2-circleEnd"><circle style="stroke-width: 1; stroke-dasharray: 1, 0;" class="arrowMarkerPath" r="5" cy="5" cx="5"></circle></marker><marker orient="auto" markerHeight="11" markerWidth="11" markerUnits="userSpaceOnUse" refY="5" refX="-1" viewBox="0 0 10 10" class="marker flowchart-v2" id="mermaid-diagram-mermaid-0qb0ada_flowchart-v2-circleStart"><circle style="stroke-width: 1; stroke-dasharray: 1, 0;" class="arrowMarkerPath" r="5" cy="5" cx="5"></circle></marker><marker orient="auto" markerHeight="11" markerWidth="11" markerUnits="userSpaceOnUse" refY="5.2" refX="12" viewBox="0 0 11 11" class="marker cross flowchart-v2" id="mermaid-diagram-mermaid-0qb0ada_flowchart-v2-crossEnd"><path style="stroke-width: 2; stroke-dasharray: 1, 0;" class="arrowMarkerPath" d="M 1,1 l 9,9 M 10,1 l -9,9"></path></marker><marker orient="auto" markerHeight="11" markerWidth="11" markerUnits="userSpaceOnUse" refY="5.2" refX="-1" viewBox="0 0 11 11" class="marker cross flowchart-v2" id="mermaid-diagram-mermaid-0qb0ada_flowchart-v2-crossStart"><path style="stroke-width: 2; stroke-dasharray: 1, 0;" class="arrowMarkerPath" d="M 1,1 l 9,9 M 10,1 l -9,9"></path></marker><g class="root"><g class="clusters"><g data-look="classic" id="subGraph4" class="cluster"><rect height="128" width="1020" y="1128" x="8" style=""></rect><g transform="translate(455.3984375, 1128)" class="cluster-label"><foreignObject height="24" width="125.203125"><div xmlns="http://www.w3.org/1999/xhtml" style="display: table-cell; white-space: nowrap; line-height: 1.5; max-width: 200px; text-align: center;"><span class="nodeLabel"><p>Output / UI Layer</p></span></div></foreignObject></g></g><g data-look="classic" id="subGraph3" class="cluster"><rect height="256" width="885" y="822" x="70.5" style=""></rect><g transform="translate(463.2578125, 822)" class="cluster-label"><foreignObject height="24" width="99.484375"><div xmlns="http://www.w3.org/1999/xhtml" style="display: table-cell; white-space: nowrap; line-height: 1.5; max-width: 200px; text-align: center;"><span class="nodeLabel"><p>Analysis Layer</p></span></div></foreignObject></g></g><g data-look="classic" id="subGraph2" class="cluster"><rect height="256" width="742.5" y="516" x="255.5" style=""></rect><g transform="translate(568.5078125, 516)" class="cluster-label"><foreignObject height="24" width="116.484375"><div xmlns="http://www.w3.org/1999/xhtml" style="display: table-cell; white-space: nowrap; line-height: 1.5; max-width: 200px; text-align: center;"><span class="nodeLabel"><p>Processing Layer</p></span></div></foreignObject></g></g><g data-look="classic" id="subGraph1" class="cluster"><rect height="280" width="700" y="186" x="173" style=""></rect><g transform="translate(484.9296875, 186)" class="cluster-label"><foreignObject height="24" width="76.140625"><div xmlns="http://www.w3.org/1999/xhtml" style="display: table-cell; white-space: nowrap; line-height: 1.5; max-width: 200px; text-align: center;"><span class="nodeLabel"><p>Data Layer</p></span></div></foreignObject></g></g><g data-look="classic" id="subGraph0" class="cluster"><rect height="128" width="950" y="8" x="58" style=""></rect><g transform="translate(455.6875, 8)" class="cluster-label"><foreignObject height="24" width="154.625"><div xmlns="http://www.w3.org/1999/xhtml" style="display: table-cell; white-space: nowrap; line-height: 1.5; max-width: 200px; text-align: center;"><span class="nodeLabel"><p>External Data Sources</p></span></div></foreignObject></g></g></g><g class="edgePaths"><path marker-end="url(#mermaid-diagram-mermaid-0qb0ada_flowchart-v2-pointEnd)" style="" class="edge-thickness-normal edge-pattern-solid edge-thickness-normal edge-pattern-solid flowchart-link" id="L_A_E_0" d="M223,111L223,115.167C223,119.333,223,127.667,223,136C223,144.333,223,152.667,223,161C223,169.333,223,177.667,250.687,188.847C278.374,200.028,333.748,214.056,361.435,221.07L389.122,228.084"></path><path marker-end="url(#mermaid-diagram-mermaid-0qb0ada_flowchart-v2-pointEnd)" style="" class="edge-thickness-normal edge-pattern-solid edge-thickness-normal edge-pattern-solid flowchart-link" id="L_B_E_0" d="M533,111L533,115.167C533,119.333,533,127.667,533,136C533,144.333,533,152.667,533,161C533,169.333,533,177.667,532.539,185.339C532.077,193.011,531.155,200.023,530.694,203.528L530.232,207.034"></path><path marker-end="url(#mermaid-diagram-mermaid-0qb0ada_flowchart-v2-pointEnd)" style="" class="edge-thickness-normal edge-pattern-solid edge-thickness-normal edge-pattern-solid flowchart-link" id="L_C_E_0" d="M843,111L843,115.167C843,119.333,843,127.667,843,136C843,144.333,843,152.667,843,161C843,169.333,843,177.667,811.982,189.2C780.964,200.734,718.928,215.467,687.91,222.834L656.892,230.201"></path><path marker-end="url(#mermaid-diagram-mermaid-0qb0ada_flowchart-v2-pointEnd)" style="" class="edge-thickness-normal edge-pattern-solid edge-thickness-normal edge-pattern-solid flowchart-link" id="L_E_D_0" d="M523,313L523,317.167C523,321.333,523,329.667,523,337.333C523,345,523,352,523,355.5L523,359"></path><path marker-end="url(#mermaid-diagram-mermaid-0qb0ada_flowchart-v2-pointEnd)" style="" class="edge-thickness-normal edge-pattern-solid edge-thickness-normal edge-pattern-solid flowchart-link" id="L_D_F_0" d="M523,441L523,445.167C523,449.333,523,457.667,523,466C523,474.333,523,482.667,523,491C523,499.333,523,507.667,523,515.333C523,523,523,530,523,533.5L523,537"></path><path marker-end="url(#mermaid-diagram-mermaid-0qb0ada_flowchart-v2-pointEnd)" style="" class="edge-thickness-normal edge-pattern-solid edge-thickness-normal edge-pattern-solid flowchart-link" id="L_F_G_0" d="M523,619L523,623.167C523,627.333,523,635.667,523,643.333C523,651,523,658,523,661.5L523,665"></path><path marker-end="url(#mermaid-diagram-mermaid-0qb0ada_flowchart-v2-pointEnd)" style="" class="edge-thickness-normal edge-pattern-solid edge-thickness-normal edge-pattern-solid flowchart-link" id="L_G_I_0" d="M422.453,747L411.711,751.167C400.969,755.333,379.484,763.667,368.742,772C358,780.333,358,788.667,358,797C358,805.333,358,813.667,358,828.5C358,843.333,358,864.667,358,886C358,907.333,358,928.667,358,942.833C358,957,358,964,358,967.5L358,971"></path><path marker-end="url(#mermaid-diagram-mermaid-0qb0ada_flowchart-v2-pointEnd)" style="" class="edge-thickness-normal edge-pattern-solid edge-thickness-normal edge-pattern-solid flowchart-link" id="L_G_J_0" d="M573.273,747L578.645,751.167C584.016,755.333,594.758,763.667,600.129,772C605.5,780.333,605.5,788.667,605.5,797C605.5,805.333,605.5,813.667,605.5,821.333C605.5,829,605.5,836,605.5,839.5L605.5,843"></path><path marker-end="url(#mermaid-diagram-mermaid-0qb0ada_flowchart-v2-pointEnd)" style="" class="edge-thickness-normal edge-pattern-solid edge-thickness-normal edge-pattern-solid flowchart-link" id="L_J_K_0" d="M655.773,925L661.145,929.167C666.516,933.333,677.258,941.667,682.629,949.333C688,957,688,964,688,967.5L688,971"></path><path marker-end="url(#mermaid-diagram-mermaid-0qb0ada_flowchart-v2-pointEnd)" style="" class="edge-thickness-normal edge-pattern-solid edge-thickness-normal edge-pattern-solid flowchart-link" id="L_I_L_0" d="M228,1047.616L208.417,1052.68C188.833,1057.744,149.667,1067.872,130.083,1077.103C110.5,1086.333,110.5,1094.667,110.5,1103C110.5,1111.333,110.5,1119.667,114.103,1127.523C117.706,1135.379,124.913,1142.759,128.516,1146.449L132.119,1150.138"></path><path marker-end="url(#mermaid-diagram-mermaid-0qb0ada_flowchart-v2-pointEnd)" style="" class="edge-thickness-normal edge-pattern-solid edge-thickness-normal edge-pattern-solid flowchart-link" id="L_I_M_0" d="M358,1053L358,1057.167C358,1061.333,358,1069.667,358,1078C358,1086.333,358,1094.667,358,1103C358,1111.333,358,1119.667,367.475,1127.746C376.95,1135.824,395.9,1143.649,405.375,1147.561L414.85,1151.473"></path><path marker-end="url(#mermaid-diagram-mermaid-0qb0ada_flowchart-v2-pointEnd)" style="" class="edge-thickness-normal edge-pattern-solid edge-thickness-normal edge-pattern-solid flowchart-link" id="L_I_N_0" d="M488,1037.111L526.333,1043.926C564.667,1050.741,641.333,1064.37,679.667,1075.352C718,1086.333,718,1094.667,718,1103C718,1111.333,718,1119.667,726.83,1127.731C735.66,1135.795,753.321,1143.59,762.151,1147.487L770.981,1151.385"></path><path marker-end="url(#mermaid-diagram-mermaid-0qb0ada_flowchart-v2-pointEnd)" style="" class="edge-thickness-normal edge-pattern-solid edge-thickness-normal edge-pattern-solid flowchart-link" id="L_J_L_0" d="M475.5,906.17L428.417,913.475C381.333,920.78,287.167,935.39,240.083,953.362C193,971.333,193,992.667,193,1014C193,1035.333,193,1056.667,193,1071.5C193,1086.333,193,1094.667,193,1103C193,1111.333,193,1119.667,191.897,1127.364C190.794,1135.061,188.587,1142.121,187.484,1145.652L186.381,1149.182"></path><path marker-end="url(#mermaid-diagram-mermaid-0qb0ada_flowchart-v2-pointEnd)" style="" class="edge-thickness-normal edge-pattern-solid edge-thickness-normal edge-pattern-solid flowchart-link" id="L_J_M_0" d="M555.227,925L549.855,929.167C544.484,933.333,533.742,941.667,528.371,956.5C523,971.333,523,992.667,523,1014C523,1035.333,523,1056.667,523,1071.5C523,1086.333,523,1094.667,523,1103C523,1111.333,523,1119.667,522.452,1127.341C521.904,1135.016,520.808,1142.032,520.259,1145.54L519.711,1149.048"></path><path marker-end="url(#mermaid-diagram-mermaid-0qb0ada_flowchart-v2-pointEnd)" style="" class="edge-thickness-normal edge-pattern-solid edge-thickness-normal edge-pattern-solid flowchart-link" id="L_J_N_0" d="M735.5,919.616L755.083,924.68C774.667,929.744,813.833,939.872,833.417,955.603C853,971.333,853,992.667,853,1014C853,1035.333,853,1056.667,853,1071.5C853,1086.333,853,1094.667,853,1103C853,1111.333,853,1119.667,853.548,1127.341C854.096,1135.016,855.192,1142.032,855.741,1145.54L856.289,1149.048"></path><path marker-end="url(#mermaid-diagram-mermaid-0qb0ada_flowchart-v2-pointEnd)" style="" class="edge-thickness-normal edge-pattern-solid edge-thickness-normal edge-pattern-solid flowchart-link" id="L_K_L_0" d="M558,1036.486L518,1043.405C478,1050.324,398,1064.162,358,1075.248C318,1086.333,318,1094.667,318,1103C318,1111.333,318,1119.667,309.17,1127.731C300.34,1135.795,282.679,1143.59,273.849,1147.487L265.019,1151.385"></path><path marker-end="url(#mermaid-diagram-mermaid-0qb0ada_flowchart-v2-pointEnd)" style="" class="edge-thickness-normal edge-pattern-solid edge-thickness-normal edge-pattern-solid flowchart-link" id="L_K_M_0" d="M688,1053L688,1057.167C688,1061.333,688,1069.667,688,1078C688,1086.333,688,1094.667,688,1103C688,1111.333,688,1119.667,677.233,1127.771C666.466,1135.875,644.932,1143.751,634.164,1147.688L623.397,1151.626"></path><path marker-end="url(#mermaid-diagram-mermaid-0qb0ada_flowchart-v2-pointEnd)" style="" class="edge-thickness-normal edge-pattern-solid edge-thickness-normal edge-pattern-solid flowchart-link" id="L_K_N_0" d="M818,1047.616L837.583,1052.68C857.167,1057.744,896.333,1067.872,915.917,1077.103C935.5,1086.333,935.5,1094.667,935.5,1103C935.5,1111.333,935.5,1119.667,931.28,1127.559C927.059,1135.451,918.619,1142.902,914.399,1146.627L910.178,1150.353"></path></g><g class="edgeLabels"><g class="edgeLabel"><g transform="translate(0, 0)" class="label"><foreignObject height="0" width="0"><div class="labelBkg" xmlns="http://www.w3.org/1999/xhtml" style="display: table-cell; white-space: nowrap; line-height: 1.5; max-width: 200px; text-align: center;"><span class="edgeLabel"></span></div></foreignObject></g></g><g class="edgeLabel"><g transform="translate(0, 0)" class="label"><foreignObject height="0" width="0"><div class="labelBkg" xmlns="http://www.w3.org/1999/xhtml" style="display: table-cell; white-space: nowrap; line-height: 1.5; max-width: 200px; text-align: center;"><span class="edgeLabel"></span></div></foreignObject></g></g><g class="edgeLabel"><g transform="translate(0, 0)" class="label"><foreignObject height="0" width="0"><div class="labelBkg" xmlns="http://www.w3.org/1999/xhtml" style="display: table-cell; white-space: nowrap; line-height: 1.5; max-width: 200px; text-align: center;"><span class="edgeLabel"></span></div></foreignObject></g></g><g class="edgeLabel"><g transform="translate(0, 0)" class="label"><foreignObject height="0" width="0"><div class="labelBkg" xmlns="http://www.w3.org/1999/xhtml" style="display: table-cell; white-space: nowrap; line-height: 1.5; max-width: 200px; text-align: center;"><span class="edgeLabel"></span></div></foreignObject></g></g><g class="edgeLabel"><g transform="translate(0, 0)" class="label"><foreignObject height="0" width="0"><div class="labelBkg" xmlns="http://www.w3.org/1999/xhtml" style="display: table-cell; white-space: nowrap; line-height: 1.5; max-width: 200px; text-align: center;"><span class="edgeLabel"></span></div></foreignObject></g></g><g class="edgeLabel"><g transform="translate(0, 0)" class="label"><foreignObject height="0" width="0"><div class="labelBkg" xmlns="http://www.w3.org/1999/xhtml" style="display: table-cell; white-space: nowrap; line-height: 1.5; max-width: 200px; text-align: center;"><span class="edgeLabel"></span></div></foreignObject></g></g><g class="edgeLabel"><g transform="translate(0, 0)" class="label"><foreignObject height="0" width="0"><div class="labelBkg" xmlns="http://www.w3.org/1999/xhtml" style="display: table-cell; white-space: nowrap; line-height: 1.5; max-width: 200px; text-align: center;"><span class="edgeLabel"></span></div></foreignObject></g></g><g class="edgeLabel"><g transform="translate(0, 0)" class="label"><foreignObject height="0" width="0"><div class="labelBkg" xmlns="http://www.w3.org/1999/xhtml" style="display: table-cell; white-space: nowrap; line-height: 1.5; max-width: 200px; text-align: center;"><span class="edgeLabel"></span></div></foreignObject></g></g><g class="edgeLabel"><g transform="translate(0, 0)" class="label"><foreignObject height="0" width="0"><div class="labelBkg" xmlns="http://www.w3.org/1999/xhtml" style="display: table-cell; white-space: nowrap; line-height: 1.5; max-width: 200px; text-align: center;"><span class="edgeLabel"></span></div></foreignObject></g></g><g class="edgeLabel"><g transform="translate(0, 0)" class="label"><foreignObject height="0" width="0"><div class="labelBkg" xmlns="http://www.w3.org/1999/xhtml" style="display: table-cell; white-space: nowrap; line-height: 1.5; max-width: 200px; text-align: center;"><span class="edgeLabel"></span></div></foreignObject></g></g><g class="edgeLabel"><g transform="translate(0, 0)" class="label"><foreignObject height="0" width="0"><div class="labelBkg" xmlns="http://www.w3.org/1999/xhtml" style="display: table-cell; white-space: nowrap; line-height: 1.5; max-width: 200px; text-align: center;"><span class="edgeLabel"></span></div></foreignObject></g></g><g class="edgeLabel"><g transform="translate(0, 0)" class="label"><foreignObject height="0" width="0"><div class="labelBkg" xmlns="http://www.w3.org/1999/xhtml" style="display: table-cell; white-space: nowrap; line-height: 1.5; max-width: 200px; text-align: center;"><span class="edgeLabel"></span></div></foreignObject></g></g><g class="edgeLabel"><g transform="translate(0, 0)" class="label"><foreignObject height="0" width="0"><div class="labelBkg" xmlns="http://www.w3.org/1999/xhtml" style="display: table-cell; white-space: nowrap; line-height: 1.5; max-width: 200px; text-align: center;"><span class="edgeLabel"></span></div></foreignObject></g></g><g class="edgeLabel"><g transform="translate(0, 0)" class="label"><foreignObject height="0" width="0"><div class="labelBkg" xmlns="http://www.w3.org/1999/xhtml" style="display: table-cell; white-space: nowrap; line-height: 1.5; max-width: 200px; text-align: center;"><span class="edgeLabel"></span></div></foreignObject></g></g><g class="edgeLabel"><g transform="translate(0, 0)" class="label"><foreignObject height="0" width="0"><div class="labelBkg" xmlns="http://www.w3.org/1999/xhtml" style="display: table-cell; white-space: nowrap; line-height: 1.5; max-width: 200px; text-align: center;"><span class="edgeLabel"></span></div></foreignObject></g></g><g class="edgeLabel"><g transform="translate(0, 0)" class="label"><foreignObject height="0" width="0"><div class="labelBkg" xmlns="http://www.w3.org/1999/xhtml" style="display: table-cell; white-space: nowrap; line-height: 1.5; max-width: 200px; text-align: center;"><span class="edgeLabel"></span></div></foreignObject></g></g><g class="edgeLabel"><g transform="translate(0, 0)" class="label"><foreignObject height="0" width="0"><div class="labelBkg" xmlns="http://www.w3.org/1999/xhtml" style="display: table-cell; white-space: nowrap; line-height: 1.5; max-width: 200px; text-align: center;"><span class="edgeLabel"></span></div></foreignObject></g></g><g class="edgeLabel"><g transform="translate(0, 0)" class="label"><foreignObject height="0" width="0"><div class="labelBkg" xmlns="http://www.w3.org/1999/xhtml" style="display: table-cell; white-space: nowrap; line-height: 1.5; max-width: 200px; text-align: center;"><span class="edgeLabel"></span></div></foreignObject></g></g></g><g class="nodes"><g transform="translate(223, 72)" id="flowchart-A-0" class="node default"><rect height="78" width="260" y="-39" x="-130" style="fill:#e3f2fd !important" class="basic label-container"></rect><g transform="translate(-100, -24)" style="" class="label"><rect></rect><foreignObject height="48" width="200"><div xmlns="http://www.w3.org/1999/xhtml" style="display: table; white-space: break-spaces; line-height: 1.5; max-width: 200px; text-align: center; width: 200px;"><span class="nodeLabel"><p>Binance API\n(Crypto OHLCV)</p></span></div></foreignObject></g></g><g transform="translate(533, 72)" id="flowchart-B-1" class="node default"><rect height="78" width="260" y="-39" x="-130" style="fill:#e3f2fd !important" class="basic label-container"></rect><g transform="translate(-100, -24)" style="" class="label"><rect></rect><foreignObject height="48" width="200"><div xmlns="http://www.w3.org/1999/xhtml" style="display: table; white-space: break-spaces; line-height: 1.5; max-width: 200px; text-align: center; width: 200px;"><span class="nodeLabel"><p>yfinance\n(Traditional Markets + Fallback)</p></span></div></foreignObject></g></g><g transform="translate(843, 72)" id="flowchart-C-2" class="node default"><rect height="78" width="260" y="-39" x="-130" style="fill:#e3f2fd !important" class="basic label-container"></rect><g transform="translate(-100, -24)" style="" class="label"><rect></rect><foreignObject height="48" width="200"><div xmlns="http://www.w3.org/1999/xhtml" style="display: table; white-space: break-spaces; line-height: 1.5; max-width: 200px; text-align: center; width: 200px;"><span class="nodeLabel"><p>CoinGecko API\n(Top coins ranking)</p></span></div></foreignObject></g></g><g transform="translate(523, 402)" id="flowchart-D-3" class="node default"><rect height="78" width="260" y="-39" x="-130" style="fill:#f3e5f5 !important" class="basic label-container"></rect><g transform="translate(-100, -24)" style="" class="label"><rect></rect><foreignObject height="48" width="200"><div xmlns="http://www.w3.org/1999/xhtml" style="display: table; white-space: break-spaces; line-height: 1.5; max-width: 200px; text-align: center; width: 200px;"><span class="nodeLabel"><p>SQLite Cache\ncrypto_data.db</p></span></div></foreignObject></g></g><g transform="translate(523, 262)" id="flowchart-E-4" class="node default"><rect height="102" width="260" y="-51" x="-130" style="" class="basic label-container"></rect><g transform="translate(-100, -36)" style="" class="label"><rect></rect><foreignObject height="72" width="200"><div xmlns="http://www.w3.org/1999/xhtml" style="display: table; white-space: break-spaces; line-height: 1.5; max-width: 200px; text-align: center; width: 200px;"><span class="nodeLabel"><p>Validation &amp; Cleaning\n(price bounds, median filter, etc.)</p></span></div></foreignObject></g></g><g transform="translate(523, 580)" id="flowchart-F-5" class="node default"><rect height="78" width="260" y="-39" x="-130" style="fill:#e8f5e9 !important" class="basic label-container"></rect><g transform="translate(-100, -24)" style="" class="label"><rect></rect><foreignObject height="48" width="200"><div xmlns="http://www.w3.org/1999/xhtml" style="display: table; white-space: break-spaces; line-height: 1.5; max-width: 200px; text-align: center; width: 200px;"><span class="nodeLabel"><p>Indicators Engine\nRSI, MACD, BB, Fibonacci, Doji</p></span></div></foreignObject></g></g><g transform="translate(523, 708)" id="flowchart-G-6" class="node default"><rect height="78" width="260" y="-39" x="-130" style="fill:#e8f5e9 !important" class="basic label-container"></rect><g transform="translate(-100, -24)" style="" class="label"><rect></rect><foreignObject height="48" width="200"><div xmlns="http://www.w3.org/1999/xhtml" style="display: table; white-space: break-spaces; line-height: 1.5; max-width: 200px; text-align: center; width: 200px;"><span class="nodeLabel"><p>Scoring Engine\n-5 to +5 composite score</p></span></div></foreignObject></g></g><g transform="translate(833, 708)" id="flowchart-H-7" class="node default"><rect height="78" width="260" y="-39" x="-130" style="" class="basic label-container"></rect><g transform="translate(-100, -24)" style="" class="label"><rect></rect><foreignObject height="48" width="200"><div xmlns="http://www.w3.org/1999/xhtml" style="display: table; white-space: break-spaces; line-height: 1.5; max-width: 200px; text-align: center; width: 200px;"><span class="nodeLabel"><p>Snapshot Builder\nFull market view at any date</p></span></div></foreignObject></g></g><g transform="translate(358, 1014)" id="flowchart-I-8" class="node default"><rect height="78" width="260" y="-39" x="-130" style="fill:#fff3e0 !important" class="basic label-container"></rect><g transform="translate(-100, -24)" style="" class="label"><rect></rect><foreignObject height="48" width="200"><div xmlns="http://www.w3.org/1999/xhtml" style="display: table; white-space: break-spaces; line-height: 1.5; max-width: 200px; text-align: center; width: 200px;"><span class="nodeLabel"><p>Live Dashboard\nRanked table + Technical Chart</p></span></div></foreignObject></g></g><g transform="translate(605.5, 886)" id="flowchart-J-9" class="node default"><rect height="78" width="260" y="-39" x="-130" style="fill:#fff3e0 !important" class="basic label-container"></rect><g transform="translate(-100, -24)" style="" class="label"><rect></rect><foreignObject height="48" width="200"><div xmlns="http://www.w3.org/1999/xhtml" style="display: table; white-space: break-spaces; line-height: 1.5; max-width: 200px; text-align: center; width: 200px;"><span class="nodeLabel"><p>Backtesting Engine\nSingle-position rotation</p></span></div></foreignObject></g></g><g transform="translate(688, 1014)" id="flowchart-K-10" class="node default"><rect height="78" width="260" y="-39" x="-130" style="" class="basic label-container"></rect><g transform="translate(-100, -24)" style="" class="label"><rect></rect><foreignObject height="48" width="200"><div xmlns="http://www.w3.org/1999/xhtml" style="display: table; white-space: break-spaces; line-height: 1.5; max-width: 200px; text-align: center; width: 200px;"><span class="nodeLabel"><p>Exit Logic\nStop-loss, Take-profit, Signal, Max Hold</p></span></div></foreignObject></g></g><g transform="translate(173, 1192)" id="flowchart-L-11" class="node default"><rect height="78" width="260" y="-39" x="-130" style="fill:#f1f8e9 !important" class="basic label-container"></rect><g transform="translate(-100, -24)" style="" class="label"><rect></rect><foreignObject height="48" width="200"><div xmlns="http://www.w3.org/1999/xhtml" style="display: table; white-space: break-spaces; line-height: 1.5; max-width: 200px; text-align: center; width: 200px;"><span class="nodeLabel"><p>Plotly Charts\nPrice + BB + Fib, MACD, RSI, Volume</p></span></div></foreignObject></g></g><g transform="translate(513, 1192)" id="flowchart-M-12" class="node default"><rect height="78" width="260" y="-39" x="-130" style="" class="basic label-container"></rect><g transform="translate(-100, -24)" style="" class="label"><rect></rect><foreignObject height="48" width="200"><div xmlns="http://www.w3.org/1999/xhtml" style="display: table; white-space: break-spaces; line-height: 1.5; max-width: 200px; text-align: center; width: 200px;"><span class="nodeLabel"><p>Equity Curve Graph\nWith entry/exit markers</p></span></div></foreignObject></g></g><g transform="translate(863, 1192)" id="flowchart-N-13" class="node default"><rect height="78" width="260" y="-39" x="-130" style="" class="basic label-container"></rect><g transform="translate(-100, -24)" style="" class="label"><rect></rect><foreignObject height="48" width="200"><div xmlns="http://www.w3.org/1999/xhtml" style="display: table; white-space: break-spaces; line-height: 1.5; max-width: 200px; text-align: center; width: 200px;"><span class="nodeLabel"><p>Detailed Trade Log\nWith signal snapshots</p></span></div></foreignObject></g></g></g></g></g></svg>